<?xml version="1.0" encoding="utf-8"?>
<!-- Generator: Adobe Illustrator 23.0.2, SVG Export Plug-In . SVG Version: 6.00 Build 0)  -->
<svg version="1.1" id="Camada_1" xmlns="http://www.w3.org/2000/svg" xmlns:xlink="http://www.w3.org/1999/xlink" x="0px" y="0px"
	 viewBox="0 0 500 120" style="enable-background:new 0 0 500 120;" xml:space="preserve">
<style type="text/css">
	.st0{clip-path:url(#SVGID_2_);}
	.st1{fill:#F2BE40;}
	.st2{clip-path:url(#SVGID_4_);}
	.st3{clip-path:url(#SVGID_6_);}
	.st4{clip-path:url(#SVGID_8_);}
	.st5{clip-path:url(#SVGID_10_);}
	.st6{fill:none;stroke:#3B41C9;stroke-width:3;stroke-linecap:round;}
	.st7{fill:#3B41C9;}
</style>
<g>
	<defs>
		<rect id="SVGID_1_" x="24" y="52" width="96.3" height="16"/>
	</defs>
	<clipPath id="SVGID_2_">
		<use xlink:href="#SVGID_1_"  style="overflow:visible;"/>
	</clipPath>
	<g class="st0">
		<path class="st1" d="M161.9,52.4H84.4l-3.3,5.7h-7.7l-3.3-5.7c-2.9,0-38.6,0-41.4,0l-4.3,7.4l4.3,7.4c2.9,0,38.6,0,41.4,0l3.3-5.7
			h7.7l3.3,5.7h77.5C162.7,62.3,162.7,57.3,161.9,52.4z"/>
	</g>
</g>
<g>
	<defs>
		<rect id="SVGID_3_" x="42.7" y="14.7" width="77.7" height="17.3"/>
	</defs>
	<clipPath id="SVGID_4_">
		<use xlink:href="#SVGID_3_"  style="overflow:visible;"/>
	</clipPath>
	<g class="st2">
		<path class="st1" d="M55.5,30.7l3.3-5.7h7.7l3.3,5.7h81.7c-15.3-17.3-32.6-14.8-53.3-14.8H69.8l-3.3,5.7h-7.7l-3.3-5.7H47
			l-4.3,7.4l4.3,7.4L55.5,30.7L55.5,30.7z"/>
	</g>
</g>
<g>
	<defs>
		<rect id="SVGID_5_" x="82.7" y="33.3" width="37.7" height="16"/>
	</defs>
	<clipPath id="SVGID_6_">
		<use xlink:href="#SVGID_5_"  style="overflow:visible;"/>
	</clipPath>
	<g class="st3">
		<path class="st1" d="M106.7,39.9H99l-3.3-5.7h-8.6l-4.3,7.4l4.3,7.4h8.6l3.3-5.7h7.7L110,49h51.2c-1.4-5.4-3.8-10.4-7-14.8H110
			L106.7,39.9z"/>
	</g>
</g>
<path class="st1" d="M4.3,52.4L0,59.8l4.3,7.4h8.6l4.3-7.4l-4.3-7.4H4.3z"/>
<path class="st1" d="M58.5,41.6l4.3,7.4h8.6l4.3-7.4l-4.3-7.4h-8.6L58.5,41.6z"/>
<path class="st1" d="M33.5,88.8l-4.3,7.4l4.3,7.4h8.6l4.3-7.4l-4.3-7.4H33.5z"/>
<g>
	<defs>
		<rect id="SVGID_7_" x="45.3" y="69.3" width="75" height="17.3"/>
	</defs>
	<clipPath id="SVGID_8_">
		<use xlink:href="#SVGID_7_"  style="overflow:visible;"/>
	</clipPath>
	<g class="st4">
		<path class="st1" d="M70.2,76.3h-7.7l-3.3-5.7h-8.6L46.3,78l4.3,7.4h8.6l3.3-5.7h7.7l3.3,5.7h80.7c3.2-4.4,5.6-9.4,7-14.8
			c-26.8,0-60.9,0-87.7,0L70.2,76.3z"/>
	</g>
</g>
<g>
	<defs>
		<rect id="SVGID_9_" x="53.3" y="88" width="67" height="16"/>
	</defs>
	<clipPath id="SVGID_10_">
		<use xlink:href="#SVGID_9_"  style="overflow:visible;"/>
	</clipPath>
	<g class="st5">
		<path class="st1" d="M92.1,94.5h-7.7l-3.3-5.7c-7.7,0-15.4,0-23.2,0l-4.3,7.4l4.3,7.4c7.7,0,15.5,0,23.2,0l3.3-5.7h7.7l3.3,5.7
			c21.9,0,40.3,2.9,56.1-14.8H95.4L92.1,94.5z"/>
	</g>
</g>
<path class="st6" d="M120.8,9.4v101.2"/>
<g>
	<g transform="translate(97.278633, 49.782831)">
		<g>
			<path class="st7" d="M63.7,16.6h-28v-39.2h28v7.8H44.7v7.9H61v7.8H44.7v8h19.1V16.6z"/>
		</g>
	</g>
</g>
<g>
	<g transform="translate(122.434714, 49.782831)">
		<g>
			<path class="st7" d="M75.7-24.3v40.9h-8.9v-1.7l1.7-5h-2.2c-0.5,1.2-1.1,2.4-2,3.5c-0.8,1.1-2,2-3.4,2.7
				c-1.4,0.7-3.3,1.1-5.7,1.1c-2.7,0-5-0.7-6.8-2c-1.8-1.3-3.1-3.1-4.1-5.4C43.5,7.6,43,5.2,43,2.5c0-2.7,0.4-5.1,1.4-7.3
				c0.9-2.2,2.3-4,4.1-5.3c1.8-1.3,4.1-2,6.8-2c2.3,0,4.2,0.4,5.7,1.1c1.4,0.7,2.6,1.6,3.4,2.7c0.8,1.1,1.5,2.3,2,3.5h2.2l-1.7-5
				v-14.5H75.7z M66.9,2.5c0-2.4-0.6-4.1-1.9-5.1c-1.3-1.1-3.1-1.6-5.5-1.6c-2.4,0-4.2,0.5-5.5,1.6c-1.3,1.1-1.9,2.8-1.9,5.1
				c0,2.4,0.6,4.1,1.9,5.2c1.3,1.1,3.1,1.6,5.5,1.6c2.4,0,4.2-0.5,5.5-1.6C66.2,6.6,66.9,4.9,66.9,2.5z"/>
		</g>
	</g>
</g>
<g>
	<g transform="translate(151.136842, 49.782831)">
		<g>
			<path class="st7" d="M67.8,9.4c1.6,0,3-0.3,4.2-1c1.2-0.7,2.1-1.7,2.8-3.2c0.7-1.5,1-3.6,1-6.2v-10.4h8.9v28.1h-8.9v-3.4l1.7-5
				h-2.2c-0.6,2.5-1.7,4.6-3.5,6.4c-1.8,1.7-4.1,2.6-7.1,2.6c-3.6,0-6.4-1.2-8.5-3.5c-2-2.3-3.1-5.6-3.1-10v-15.2h8.9V2.3
				c0,2.6,0.4,4.4,1.3,5.5C64.2,8.8,65.7,9.4,67.8,9.4z"/>
		</g>
	</g>
</g>
<g>
	<g transform="translate(179.004612, 49.782831)">
		<g>
			<path class="st7" d="M77.5-22.6c2.1,0,4.2,0.1,6.2,0.4c2.1,0.3,4,0.8,5.8,1.6c1.8,0.8,3.4,1.9,4.8,3.3c1.4,1.4,2.5,3.3,3.3,5.6
				c0.8,2.3,1.2,5.2,1.2,8.5c0,3.4-0.4,6.2-1.2,8.5c-0.8,2.3-1.9,4.2-3.3,5.7c-1.4,1.5-3,2.6-4.8,3.4c-1.8,0.8-3.8,1.3-5.8,1.6
				c-2.1,0.3-4.1,0.4-6.2,0.4H63v-39.2H77.5z M71.9,8.8h5.6c1.8,0,3.4-0.1,4.9-0.3c1.5-0.2,2.8-0.6,4-1.4c1.2-0.8,2-1.9,2.7-3.5
				c0.6-1.6,0.9-3.8,0.9-6.7c0-2.8-0.3-5-0.9-6.6c-0.6-1.6-1.5-2.8-2.7-3.5c-1.2-0.8-2.5-1.2-4-1.4c-1.5-0.2-3.1-0.3-4.9-0.3h-5.6
				V8.8z"/>
		</g>
	</g>
</g>
<g>
	<g transform="translate(210.460146, 49.782831)">
		<g>
			<path class="st7" d="M72.4,8.9c0-2.4,0.8-4.3,2.5-5.8c1.7-1.4,4.6-2.5,8.7-3.1l8.9-1.2c0-1.1-0.5-2-1.4-2.7c-0.9-0.7-2.3-1-4.3-1
				c-1.8,0-3.2,0.4-4.1,1.1c-1,0.7-1.4,1.7-1.4,3h-8.4c0-2.4,0.6-4.4,1.8-6.1c1.2-1.7,2.9-3,5-3.9c2.1-0.9,4.5-1.3,7.1-1.3
				c2.6,0,5,0.4,7.2,1.3c2.2,0.9,4,2.3,5.3,4.2c1.4,1.9,2,4.4,2,7.5v7.9h4.1v7.8h-6.2c-1.3,0-2.4-0.4-3.1-1.1
				c-0.7-0.7-1.1-1.8-1.1-3.1v-0.6l1.4-3.3h-2.2c-0.3,1.6-0.9,3-1.8,4.3c-0.8,1.3-2,2.3-3.6,3.1c-1.6,0.8-3.7,1.2-6.3,1.2
				c-2.2,0-4-0.3-5.3-0.9c-1.3-0.6-2.4-1.3-3.1-2.2s-1.2-1.8-1.5-2.7C72.5,10.4,72.4,9.6,72.4,8.9z M81.3,7.2c0,0.8,0.3,1.4,1,1.7
				c0.7,0.3,1.4,0.4,2.1,0.4c2.4,0,4.4-0.5,5.9-1.5c1.5-1,2.2-2.3,2.2-4l-7.2,1c-1.3,0.2-2.3,0.4-3,0.7C81.6,5.9,81.3,6.4,81.3,7.2z
				"/>
		</g>
	</g>
</g>
<g>
	<g transform="translate(237.326672, 49.782831)">
		<g>
			<path class="st7" d="M95.2-3.7V9.4l10.4-0.6v7.8l-14.5,0.6c-1.5,0-2.7-0.4-3.5-1.2c-0.8-0.8-1.2-2-1.2-3.5V-3.7h-6.7v-7.8h6.7
				v-5.3l8.9-2.8v8.1h9.3v7.8H95.2z"/>
		</g>
	</g>
</g>
<g>
	<g transform="translate(258.436088, 49.782831)">
		<g>
			<path class="st7" d="M88.4,8.9c0-2.4,0.8-4.3,2.5-5.8c1.7-1.4,4.6-2.5,8.7-3.1l8.9-1.2c0-1.1-0.5-2-1.4-2.7c-0.9-0.7-2.3-1-4.3-1
				c-1.8,0-3.2,0.4-4.1,1.1c-1,0.7-1.4,1.7-1.4,3h-8.4c0-2.4,0.6-4.4,1.8-6.1c1.2-1.7,2.9-3,5-3.9c2.1-0.9,4.5-1.3,7.1-1.3
				c2.6,0,5,0.4,7.2,1.3c2.2,0.9,4,2.3,5.3,4.2c1.4,1.9,2,4.4,2,7.5v7.9h4.1v7.8h-6.2c-1.3,0-2.4-0.4-3.1-1.1
				c-0.7-0.7-1.1-1.8-1.1-3.1v-0.6l1.4-3.3h-2.2c-0.3,1.6-0.9,3-1.8,4.3c-0.8,1.3-2,2.3-3.6,3.1c-1.6,0.8-3.7,1.2-6.3,1.2
				c-2.2,0-4-0.3-5.3-0.9c-1.3-0.6-2.4-1.3-3.1-2.2c-0.7-0.9-1.2-1.8-1.5-2.7C88.5,10.4,88.4,9.6,88.4,8.9z M97.3,7.2
				c0,0.8,0.3,1.4,1,1.7c0.7,0.3,1.4,0.4,2.1,0.4c2.4,0,4.4-0.5,5.9-1.5c1.5-1,2.2-2.3,2.2-4l-7.2,1c-1.3,0.2-2.3,0.4-3,0.7
				C97.6,5.9,97.3,6.4,97.3,7.2z"/>
		</g>
	</g>
</g>
<g>
	<g transform="translate(285.302613, 49.782831)">
		<g>
			<path class="st7" d="M127-6.4v-16.2h8.9v39.2H127V1.4h-19.7v15.2h-8.9v-39.2h8.9v16.2H127z"/>
		</g>
	</g>
</g>
<g>
	<g transform="translate(318.426883, 49.782831)">
		<g>
			<path class="st7" d="M123.6,9.4c1.6,0,3-0.3,4.2-1c1.2-0.7,2.1-1.7,2.8-3.2c0.7-1.5,1-3.6,1-6.2v-10.4h8.9v28.1h-8.9v-3.4l1.7-5
				h-2.2c-0.6,2.5-1.7,4.6-3.5,6.4c-1.8,1.7-4.1,2.6-7.1,2.6c-3.6,0-6.4-1.2-8.5-3.5c-2-2.3-3.1-5.6-3.1-10v-15.2h8.9V2.3
				c0,2.6,0.4,4.4,1.3,5.5C120,8.8,121.5,9.4,123.6,9.4z"/>
		</g>
	</g>
</g>
<g>
	<g transform="translate(346.294638, 49.782831)">
		<g>
			<path class="st7" d="M127.7,16.6h-8.9v-40.9h8.9v14.5l-1.7,5h2.2c0.5-1.3,1.1-2.4,2-3.5c0.8-1.1,2-2,3.4-2.7
				c1.5-0.7,3.4-1.1,5.6-1.1c2.7,0,5,0.7,6.8,2c1.8,1.3,3.2,3.1,4.1,5.3c0.9,2.2,1.4,4.6,1.4,7.3c0,2.6-0.5,5.1-1.4,7.3
				c-0.9,2.2-2.3,4-4.1,5.4c-1.8,1.3-4,2-6.8,2c-2.3,0-4.2-0.4-5.6-1.1c-1.5-0.7-2.6-1.6-3.4-2.7c-0.8-1.1-1.5-2.3-2-3.5H126l1.7,5
				V16.6z M127.7,2.5c0,2.4,0.6,4.1,1.9,5.2c1.3,1.1,3.1,1.6,5.5,1.6c2.4,0,4.3-0.5,5.5-1.6c1.3-1.1,1.9-2.8,1.9-5.2
				c0-2.4-0.6-4.1-1.9-5.1c-1.3-1.1-3.1-1.6-5.5-1.6c-2.4,0-4.2,0.5-5.5,1.6C128.3-1.6,127.7,0.2,127.7,2.5z"/>
		</g>
	</g>
</g>
<g>
	<g transform="translate(182.913527, 72.608212)">
		<g>
			<path class="st7" d="M80.4,24.2h-4.2l-1.5-4.5h-7.6l-1.5,4.5h-4.1l6.1-18.1h6.7L80.4,24.2z M70.4,9.7l-2.1,6.4h5.2l-2.1-6.4H70.4
				z"/>
		</g>
	</g>
</g>
<g>
	<g transform="translate(204.512507, 72.608212)">
		<g>
			<path class="st7" d="M76.2,6.1c1.2,0,2.2,0.1,3.2,0.2c1,0.2,1.8,0.5,2.5,0.9c0.7,0.4,1.3,1.1,1.7,1.9c0.4,0.8,0.6,1.9,0.6,3.3
				c0,1.4-0.2,2.5-0.6,3.3c-0.4,0.8-1,1.5-1.7,1.9c-0.7,0.4-1.6,0.7-2.5,0.9c-1,0.2-2,0.2-3.2,0.2h-2.4v5.4h-4.1V6.1H76.2z
				 M73.8,15.2h2.6c0.8,0,1.5-0.1,2-0.2c0.5-0.1,0.9-0.4,1.2-0.8c0.3-0.4,0.4-1,0.4-1.9c0-0.8-0.1-1.4-0.4-1.8
				c-0.3-0.4-0.7-0.6-1.2-0.8c-0.5-0.1-1.2-0.2-2-0.2h-2.6V15.2z"/>
		</g>
	</g>
</g>
<g>
	<g transform="translate(223.995892, 72.608212)">
		<g>
			<path class="st7" d="M88.2,6.1v3.6h-4.1v10.9h4.1v3.6H76v-3.6h4.1V9.7H76V6.1H88.2z"/>
		</g>
	</g>
</g>
</svg>
